# xmcd
#
# Track frame offsets:
#	150
#	19327
#	36471
#	53131
#	75193
#	93800
#	113339
#	126304
#	146871
#	166725
#	186395
#	207042
#
# Disc length: 3048 seconds
#
# Revision: 1
# Processed by: cddbd v1.5PL3 Copyright (c) Steve Scherf et al.
# Submitted via: CDex 1.50Beta5
#
DISCID=990be60c
DTITLE=BOOWY - LAST GIGS
DYEAR=1988
DGENRE=Pop
TTITLE0=B・BLUE
TTITLE1=DRAMATIC? DRASTIC!
TTITLE2=Marionette
TTITLE3=わがままジュリエット
TTITLE4=LONGER THAN FOREVER
TTITLE5=CLOUDY HEART
TTITLE6=WORKING MAN
TTITLE7=IMAGE DOWN
TTITLE8=BEAT SWEET
TTITLE9=NO.NEW YORK
TTITLE10=ONLY YOU
TTITLE11=Dreamin’
EXTD=
EXTT0=
EXTT1=
EXTT2=
EXTT3=
EXTT4=
EXTT5=
EXTT6=
EXTT7=
EXTT8=
EXTT9=
EXTT10=
EXTT11=
PLAYORDER=
